<svg width="70" height="70" viewBox="0 0 70 70" fill="none" xmlns="http://www.w3.org/2000/svg">
<path d="M55.4167 32.0835H14.5833C11.3617 32.0835 8.75 34.6952 8.75 37.9168V58.3335C8.75 61.5552 11.3617 64.1668 14.5833 64.1668H55.4167C58.6383 64.1668 61.25 61.5552 61.25 58.3335V37.9168C61.25 34.6952 58.6383 32.0835 55.4167 32.0835Z" stroke="black" stroke-width="6" stroke-linecap="round" stroke-linejoin="round"/>
<path d="M20.4167 32.0835V20.4168C20.4167 16.5491 21.9532 12.8398 24.6881 10.1049C27.423 7.36995 31.1323 5.8335 35.0001 5.8335C38.8678 5.8335 42.5771 7.36995 45.3121 10.1049C48.047 12.8398 49.5834 16.5491 49.5834 20.4168V32.0835" stroke="black" stroke-width="6" stroke-linecap="round" stroke-linejoin="round"/>
</svg>
